<svg width="64" height="64" viewBox="0 0 64 64" fill="none" xmlns="http://www.w3.org/2000/svg">
<g clip-path="url(#clip0_1_164)">
<path d="M28.42 3C14.845 3 3.39 12.24 0 24.76H2.67C3.63 21.555 5.185 18.615 7.18 16.035C9.365 17.265 11.895 18.295 14.695 19.085C14.225 20.88 13.84 22.77 13.57 24.76H16.18C16.44 23 16.795 21.32 17.215 19.72C20.3 20.4 23.635 20.805 27.14 20.88V24.76H29.7V20.88C33.205 20.805 36.54 20.405 39.625 19.72C40.045 21.32 40.4 23 40.66 24.76H43.27C43 22.77 42.615 20.88 42.145 19.085C44.945 18.295 47.475 17.265 49.66 16.035C51.655 18.615 53.21 21.555 54.165 24.76H56.84C53.45 12.24 41.995 3 28.42 3ZM27.14 5.715V18.32C23.885 18.245 20.79 17.87 17.94 17.25C20.045 10.955 23.38 6.545 27.14 5.715ZM29.7 5.715C33.46 6.545 36.795 10.955 38.9 17.25C36.05 17.87 32.955 18.245 29.7 18.32V5.715ZM20.91 6.65C18.655 9.03 16.77 12.46 15.41 16.62C12.965 15.93 10.755 15.055 8.865 14.04C12.105 10.595 16.25 8.015 20.91 6.65ZM35.93 6.65C40.59 8.015 44.735 10.595 47.975 14.04C46.085 15.055 43.875 15.93 41.43 16.62C40.07 12.46 38.185 9.03 35.93 6.65ZM0.26 27.32L3.51 37.56H6.49L9.2 29.905L11.91 37.56H14.825L18.135 27.32H15.365L13.275 34.475L10.885 27.32H7.62L5.13 34.355L3.075 27.32H0.26ZM19.48 27.32L22.735 37.56H25.72L28.42 29.905L31.135 37.56H34.05L37.36 27.32H34.585L32.5 34.475L30.11 27.32H26.84L24.35 34.355L22.3 27.32H19.48ZM38.64 27.32L41.9 37.56H44.895L47.61 29.905L50.335 37.56H53.26L56.58 27.32H53.8L51.7 34.475L49.305 27.32H46.025L43.525 34.355L41.46 27.32H38.64ZM47.62 38.84C40.58 38.84 34.82 44.6 34.82 51.64C34.82 58.68 40.58 64.44 47.62 64.44C54.66 64.44 60.42 58.68 60.42 51.64C60.42 44.6 54.66 38.84 47.62 38.84ZM0 40.12C3.39 52.64 14.845 61.88 28.42 61.88C30.855 61.88 33.215 61.57 35.48 61.015C35.05 60.46 34.67 59.865 34.32 59.26C33.935 58.595 33.595 57.905 33.315 57.185C32.175 58.21 30.96 58.895 29.7 59.18V46.555C30.835 46.59 31.965 46.65 33.075 46.745C33.365 45.89 33.715 45.055 34.145 44.275C32.69 44.12 31.2 44.035 29.7 44V40.12H27.14V44C23.685 44.08 20.34 44.475 17.22 45.165C16.795 43.565 16.44 41.885 16.18 40.12H13.57C13.84 42.115 14.23 44.005 14.695 45.8C11.92 46.585 9.38 47.605 7.18 48.845C5.185 46.265 3.63 43.325 2.67 40.12H0ZM47.62 41.4C53.25 41.4 57.86 46.01 57.86 51.64C57.86 57.27 53.25 61.88 47.62 61.88C41.99 61.88 37.38 57.27 37.38 51.64C37.38 46.01 41.99 41.4 47.62 41.4ZM47.62 45.24C44.805 45.24 43.78 47.545 43.78 49.08H46.34C46.34 48.44 46.595 47.8 47.62 47.8C48.26 47.8 48.9 48.055 48.9 49.08C48.9 49.21 48.515 49.72 48.26 49.975C47.49 50.87 46.34 52.28 46.34 54.2H48.9C48.9 53.175 49.54 52.41 50.18 51.64C50.82 50.87 51.46 50.105 51.46 49.08C51.46 46.265 49.155 45.24 47.62 45.24ZM27.14 46.56V59.165C23.38 58.335 20.04 53.925 17.94 47.62C20.83 47 23.93 46.635 27.14 46.56ZM15.41 48.25C16.77 52.415 18.655 55.85 20.91 58.225C16.25 56.865 12.105 54.285 8.86 50.835C10.795 49.795 13.005 48.93 15.41 48.25ZM46.34 55.48V58.04H48.9V55.48H46.34Z" fill="#00486D"/>
</g>
<defs>
<clipPath id="clip0_1_164">
<rect width="64" height="64" fill="white"/>
</clipPath>
</defs>
</svg>
